<svg xmlns="http://www.w3.org/2000/svg" xml:space="preserve" style="fill-rule:evenodd;clip-rule:evenodd;stroke-linejoin:round;stroke-miterlimit:2" viewBox="0 0 1024 1024"><path d="M182.028 536.798C158.235 502.943 141.375 135.837 202 180c0 0 157.889 117.442 159.004 160.86C414.535 312.847 475.431 297 540 297c64.419 0 125.183 15.774 178.614 43.662 4.653-44.589 158.899-159.321 158.899-159.321 60.084-43.769 44.06 316.426 20.609 355.817C916.735 582.445 927 632.033 927 684c0 213.591-173.409 387-387 387S153 897.591 153 684c0-52.095 10.316-101.799 29.028-147.202Zm360.135 374.127-.586.368c.743 26.511 1.448 75.828-2.404 100.577H540c18.982 0 37.59-1.61 55.703-4.73.625-3.15 2.42-12.714 2.998-20.403 1.208-16.066 1.405-35.377 1.387-47.3-20.129-7.71-39.438-17.33-57.925-28.512Zm-24.206 14.666c-29.45 17.194-73.91 40.699-113.284 51.649a183.19 183.19 0 0 1-7.495 1.923c36.012 17.474 75.677 28.547 117.522 31.747.717-3.58 1.589-8.52 1.98-12.885 1.849-20.662 1.751-50.199 1.277-72.434Zm106.072 21.985c-.132 16.167-.716 38.78-2.758 54.124 34.065-8.699 66.003-22.74 94.882-41.191-31.485.345-61.448-4.044-89.868-12.257l-2.256-.676ZM447.446 834.557c-23.308 20.374-78.319 60.363-154.766 64.592a328.943 328.943 0 0 0 53.902 49.522c4.467 2.145 9.857 2.917 15.773 3.013 10.167.166 21.668-1.915 33.744-5.274 42.053-11.695 90.24-38.777 116.786-54.926-23.265-16.87-45.079-36.116-65.439-56.927Zm-124.8-395.92a329.807 329.807 0 0 0-46.339 50.605c17.823 47.198 57.237 140.877 118.425 229.906.881.78 1.678 1.679 2.38 2.683a15.15 15.15 0 0 1 1.745 3.266c15.89 22.721 33.211 45.055 51.959 66.155 67.846 76.356 154.619 136.756 260.918 137.247l5.925-.035c14.786-.242 29.937-1.643 45.457-4.332a330.301 330.301 0 0 0 39.18-43.486c-138.108-1.562-242.267-70.392-318.028-154.969-95.541-106.659-145.404-238.286-161.622-287.04Zm56.887 314.447c-23.272 14.831-72.143 43.74-113.36 53.494-10.165 2.406-19.905 3.578-28.934 3.381a327.559 327.559 0 0 0 30.881 57.251c78.59 4.271 135.291-36.615 157.584-56.062l-.423-.482c-16.299-18.478-31.548-37.848-45.748-57.582Zm27.524-368.836a327.205 327.205 0 0 0-57.68 33.042c9.841 31.948 57.561 174.098 158.727 287.036 74.03 82.645 177.026 149.709 315.599 144.011a325.771 325.771 0 0 0 27.143-59.865c-119.192 5.244-213.812-55.912-284.753-133.574-94.171-103.092-146.086-234.929-159.036-270.65ZM218.621 749.174a324.248 324.248 0 0 0 6.594 26.744c2.225.959 4.694 1.539 7.317 1.879 7.812 1.013 16.778-.112 26.271-2.359 17.672-4.182 36.858-12.256 54.44-21.063-31.048.307-69.795-.491-94.622-5.201Zm648.251-39.438c-35.422 6.761-107.729 20.02-143.383 22.743l-1.115.069c41.139 18.016 86.946 27.322 137.58 23.306a326.004 326.004 0 0 0 6.918-46.118ZM213.749 651.26a329.804 329.804 0 0 0-1.621 32.74c0 13.391.804 26.595 2.372 39.554 6.068 1.827 13.939 3.141 22.827 4.153 41.756 4.753 104.478 2.242 120.298 1.495l.681-.424 3.046-1.949-.004-.006c-15.567-23.382-29.694-46.937-42.38-69.816-23.413-.068-77.827-.795-105.219-5.747Zm525.725-227.388c-25.017 52.821-95.286 199.162-122.99 236.688 20.164 19.018 42.08 36.373 65.791 50.939a15.048 15.048 0 0 1 3.18-1.095c2.16-2.791 6.407-8.442 9.554-13.627 31.7-52.217 88.082-185.376 101.355-217.062a329.04 329.04 0 0 0-56.89-55.843Zm120.459 188.182-93.432 14.752c-14.535 31.237-29.229 61.046-41.089 81.424 38.178-3.437 111.205-17.078 142.453-23.112l.007-1.118c0-24.719-2.741-48.802-7.939-71.946Zm-253.708 35.623Zm28.925-277.5c-12.846 31.927-55.972 137.617-81.09 181.623-4.938 8.651-9.81 15.214-13.888 19.553 14.893 21.118 31.402 42.098 49.548 61.963l3.833 4.124c1.888-2.615 3.967-5.631 5.785-8.555 31.842-51.201 93.289-180.443 113.508-223.46a325.74 325.74 0 0 0-77.696-35.248ZM254.867 522.152a325.248 325.248 0 0 0-37.81 104.975c4.147.882 9.274 1.826 14.116 2.352 22.705 2.467 53.657 3.242 74.81 3.456l-.079-.152c-22.233-42.459-39.244-81.314-51.037-110.631Zm563.246-11.738c-9.345 21.959-23.86 55.592-39.568 90.193l75.241-11.88a325.493 325.493 0 0 0-35.673-78.313ZM565.361 357.097a331.108 331.108 0 0 0-25.361-.969 329.522 329.522 0 0 0-44.937 3.064c5.875 40.111 21.436 148.699 21.733 173.585.014 1.16-.02 2.227-.092 3.198a784.193 784.193 0 0 0 4.919 7.774c12.334-18.377 32.078-61.649 49.682-102.742-1.208-20.961-3.744-62.676-5.944-83.91Zm-93.933 6.231a324.495 324.495 0 0 0-34.538 9.374c6.199 17.234 23.21 61.603 51.534 114.416-5.012-41.378-13.06-97.084-16.996-123.79Zm118.268-3.45c.822 8.933 1.67 20.002 2.457 31.347l.93-2.26 5.356-13.16 5.402-13.448a327.548 327.548 0 0 0-14.145-2.479Z" style="fill:#26bd9a" transform="translate(-104.455 -199.388) scale(1.14158)"/></svg>